<?xml version="1.0" standalone="no"?>
<!DOCTYPE svg PUBLIC "-//W3C//DTD SVG 20010904//EN"
 "http://www.w3.org/TR/2001/REC-SVG-20010904/DTD/svg10.dtd">
<svg version="1.0" xmlns="http://www.w3.org/2000/svg"
 width="500.000000pt" height="500.000000pt" viewBox="0 0 500.000000 500.000000"
 preserveAspectRatio="xMidYMid meet">
<metadata>
Created by potrace 1.11, written by Peter Selinger 2001-2013
</metadata>
<g transform="translate(0.000000,500.000000) scale(0.100000,-0.100000)"
fill="#000000" stroke="none">
<path d="M0 2500 l0 -2500 2500 0 2500 0 0 2500 0 2500 -2500 0 -2500 0 0
-2500z m2715 1416 c190 -11 363 -76 545 -205 101 -71 122 -101 122 -172 0
-125 -137 -181 -245 -100 -164 122 -246 162 -383 186 -447 78 -858 -179 -998
-622 -70 -223 -56 -479 39 -695 114 -258 336 -446 602 -509 74 -18 108 -20
218 -16 156 6 217 22 353 88 l102 51 0 274 0 274 -228 0 c-216 0 -230 1 -272
23 -107 53 -104 190 6 238 41 19 65 20 373 17 317 -3 331 -4 358 -24 15 -12
37 -36 48 -55 19 -32 20 -55 23 -399 2 -201 0 -389 -3 -418 -8 -68 -39 -104
-151 -178 -198 -130 -392 -185 -649 -185 -274 1 -506 82 -717 249 -225 180
-382 447 -433 737 -21 120 -21 353 0 464 93 487 450 864 910 961 64 14 224 28
265 24 14 -2 66 -5 115 -8z"/>
</g>
</svg>
